<?xml version="1.0" encoding="utf-8"?>
<!-- Generator: Adobe Illustrator 27.0.1, SVG Export Plug-In . SVG Version: 6.00 Build 0)  -->
<svg version="1.1" id="Layer_1" xmlns="http://www.w3.org/2000/svg" xmlns:xlink="http://www.w3.org/1999/xlink" x="0px" y="0px"
	 viewBox="0 0 1900 400" style="enable-background:new 0 0 1900 400;" xml:space="preserve">
<style type="text/css">
	.st0{fill:none;}
	.st1{fill:#BF26D3;}
	.st2{fill:#C342D4;}
</style>
<rect class="st0" width="400" height="400"/>
<path class="st1" d="M137.5,75c-69,0-125,56-125,125s56,125,125,125s125-56,125-125S206.5,75,137.5,75z M137.5,237.5
	c-20.7,0-37.5-16.8-37.5-37.5s16.8-37.5,37.5-37.5S175,179.3,175,200c0,20.7-16.7,37.5-37.4,37.5
	C137.6,237.5,137.5,237.5,137.5,237.5z"/>
<path class="st2" d="M278,168.8c31.8,9.1,69.2,0,69.2,0c-10.9,47.5-45.4,77.2-95.1,80.9c-19.7,45.8-64.8,75.4-114.6,75.4L175,205.8
	C213.6,83.3,233.3,75,324.7,75h62.8C377,121.2,340.8,156.6,278,168.8z"/>
<rect x="500" class="st0" width="1400" height="400"/>
<path class="st1" d="M618.7,78C548.8,78,514,129.5,514,199.8c0,71.1,34.3,122.2,104.7,122.2c69.9,0,105-51,105-122.1
	C723.7,128.3,690,78,618.7,78z M618.7,281.7c-40,0-47-41.8-47-81.9c0-40.3,6.6-81.5,47-81.5s47.3,40.9,47.3,81.6
	C666,240.7,659.5,281.7,618.7,281.7L618.7,281.7z M857.4,132.4c-22.7,0-39.7,9.6-54.3,26.8l-1.3-7.2c-1.4-8-8.4-13.9-16.5-13.9
	h-32.2v169.7c0,4.6,3.7,8.4,8.4,8.4c0,0,0,0,0,0h44.6V199.6c0-3.4,1-6.7,2.9-9.4c9-12.6,18.3-18.9,28-18.9
	c13.9,0,16.8,10.1,16.8,23.8v112.7c0,4.6,3.8,8.4,8.4,8.4l0,0h44.6V186.1C906.7,150.9,887.3,132.4,857.4,132.4z M1006.6,279.7
	c-0.9,0.2-1.9,0.3-2.9,0.3c-6.1,0-9.1-3.7-9.1-11.1V61.6l-45.5,4.9c-4.3,0.5-7.5,4.1-7.5,8.3V271c0,33.7,19,51,49,51
	c11,0.2,22-1.9,32.2-6l-8.7-31.4C1013.3,281.3,1010,279.1,1006.6,279.7L1006.6,279.7z M1145,138.1c-3.9,0-7.2,2.7-8.2,6.4
	l-33.3,137.8L1073,144.7c-0.8-3.8-4.3-6.6-8.2-6.6h-49.6l50.8,166.3c2.1,7,8.6,11.9,16,11.9h5.7c-10.9,26.1-27.2,33.3-57.4,37.2
	l4.5,29.5c0.6,4.4,4.6,7.5,9,7.1c47-4.7,78.1-27.2,92.5-73.5l56.7-178.5L1145,138.1z"/>
<path class="st2" d="M1215.4,92.1v224.1h46.6c4.6,0,8.4-3.8,8.4-8.4v0V224h51c6.4,0,11.8-4.8,12.5-11.2l3-28h-66.5V123h67
	c6.3,0,11.6-4.6,12.4-10.8l4.1-28.5h-130.2C1219.2,83.7,1215.4,87.5,1215.4,92.1z M1523.5,256.5V138.1h-32.2
	c-8,0-14.9,5.6-16.4,13.5l-0.3,1.6c-11.2-13.9-21.7-20.8-39.8-20.8c-48.9,0-74.2,43.8-74.2,94.3c0,50.3,18.6,95.3,68.8,95.3
	c21.7,0,36.2-11.2,47.8-27.2c4.9,9.3,12.4,15.5,21.2,19.8c11.7,5.6,25.8,0.7,31.4-11c0.2-0.5,0.4-0.9,0.6-1.4l7.4-18.5
	C1526,277.7,1523.5,270.2,1523.5,256.5z M1467.4,268.3c-6.8,9.8-12.7,14.7-23.2,14.7c-25.5,0-28.5-30.4-28.5-56s5.3-56,30.9-56
	c7.9,0,12.5,2.3,19.5,9.7c2.9,3.1,4.5,7.2,4.5,11.5v66.4C1470.5,262.1,1469.4,265.5,1467.4,268.3z M1637.8,139.1
	c-8.8,4.5-17,11.2-24.7,20.1l-1.3-7.2c-1.4-8-8.4-13.9-16.5-13.9h-32.2v169.8c0,4.6,3.8,8.4,8.4,8.4l0,0h44.6V199.6
	c0-3.4,1-6.7,2.9-9.4c9-12.6,18.3-18.9,28-18.9c13.9,0,16.8,10.1,16.8,23.8v112.7c0,4.6,3.8,8.4,8.4,8.4l0,0h44.6V186.1
	C1716.8,132.2,1669.7,123,1637.8,139.1z M1810.3,198.5c-7.4-3.2-12.3-6.1-12.7-13.8c-0.3-6.9,5.2-12.9,12.1-13.8
	c15.8-2.1,31.4,1.1,46.9,9.4c3.8,1.9,8.4,0.7,10.7-2.9l15.1-23.2c-18.4-15-41.9-21.8-65.4-21.8c-37.3,0-72.8,18.5-72.8,54.3
	c0,49,54.8,54.3,77.2,63.6c8.7,3.6,12.8,7.2,13.1,16.1c0.1,8.2-5.8,15.2-13.8,16.6c-18.9,3.1-36.8-1-53.7-12.4
	c-3.4-2.2-8-1.6-10.7,1.5l-20.8,23.2c19.8,18.3,47.7,26.6,74.5,26.6c40.2,0,79.2-18.9,79.2-58.7
	C1889.2,213.9,1841.9,212.2,1810.3,198.5L1810.3,198.5z"/>
</svg>
